Coordinates
version=1
nRows=4
nColumns=63
inDegrees=yes

Units are S.I. units (second, meters, Newtons, ...)
If the header above contains a line with 'inDegrees', this indicates whether rotational values are in degrees (yes) or radians (no).

endheader
time	pelvis_tilt	pelvis_list	pelvis_rotation	pelvis_tx	pelvis_ty	pelvis_tz	hip_flexion_r	hip_adduction_r	hip_rotation_r	knee_angle_r	knee_angle_r_beta	ankle_angle_r	subtalar_angle_r	mtp_angle_r	hip_flexion_l	hip_adduction_l	hip_rotation_l	knee_angle_l	knee_angle_l_beta	ankle_angle_l	subtalar_angle_l	mtp_angle_l	L5_S1_Flex_Ext	L5_S1_Lat_Bending	L5_S1_axial_rotation	L4_L5_Flex_Ext	L4_L5_Lat_Bending	L4_L5_axial_rotation	L3_L4_Flex_Ext	L3_L4_Lat_Bending	L3_L4_axial_rotation	L2_L3_Flex_Ext	L2_L3_Lat_Bending	L2_L3_axial_rotation	L1_L2_Flex_Ext	L1_L2_Lat_Bending	L1_L2_axial_rotation	L1_T12_Flex_Ext	L1_T12_Lat_Bending	L1_T12_axial_rotation	Abs_r3	Abs_r2	Abs_r1	Abs_t1	Abs_t2	neck_flexion	neck_bending	neck_rotation	arm_flex_r	arm_add_r	arm_rot_r	elbow_flex_r	pro_sup_r	wrist_flex_r	wrist_dev_r	arm_flex_l	arm_add_l	arm_rot_l	elbow_flex_l	pro_sup_l	wrist_flex_l	wrist_dev_l
      0.00000000	     -8.21214734	     -8.39042102	     85.43429972	      0.21541679	      0.83699173	      0.52442048	     19.97511858	     -7.07669097	      8.62996929	     26.94298808	      0.47024385	     54.35202319	      3.49088463	      0.00000000	     11.03062109	      7.95340573	     15.91957262	      5.40913938	      0.09440729	     42.78678244	    -15.54508960	      0.00000000	      0.94602366	     -1.13242033	      1.43952363	      1.75686053	     -1.50611904	      1.52949386	      1.55422227	     -2.75336680	      1.52949386	      1.08121044	     -2.75336680	      1.25958318	      0.87847757	     -2.30923154	      1.16961295	      0.54055792	     -1.75411910	      1.07964273	      6.75735238	    -12.81016530	      8.00619860	      0.00000000	      0.00000000	     28.25359229	    -11.67604720	    -43.81465902	     18.66059048	      6.04857368	     57.91875814	     23.49678329	      1.59565011	    -14.89245810	     15.18748316	     30.57749666	      3.56833925	    105.76923597	     20.06471016	     32.43865913	     -0.83979585	     -2.33231287
      0.01666667	     -8.21099306	     -8.12051554	     85.91307810	      0.21312027	      0.83710907	      0.52486283	     19.94989348	     -7.28483859	      8.38973207	     27.57609772	      0.48129370	     55.02733870	      2.99550303	      0.00000000	     10.87749440	      8.29937983	     15.93612787	      5.54427668	      0.09676588	     42.87282674	    -15.61913083	      0.00000000	      0.91324770	     -1.12104313	      1.43668985	      1.69599231	     -1.49098737	      1.52648296	      1.50037465	     -2.72570427	      1.52648296	      1.04375080	     -2.72570427	      1.25710362	      0.84804182	     -2.28603116	      1.16731050	      0.52182974	     -1.73649581	      1.07751738	      6.52323703	    -12.68146413	      7.99043792	      0.00000000	      0.00000000	     28.22969632	    -11.68622830	    -43.82123910	     17.76804821	      5.18214815	     59.09535444	     25.04254995	      1.94633122	    -14.17114386	     16.22663348	     30.59707793	      3.68153248	    105.84648380	     20.76138311	     32.64136069	     -0.94830030	     -1.65561412
      0.03333333	     -8.31073610	     -8.06486335	     86.79024580	      0.21073436	      0.83694779	      0.52678243	     20.30924906	     -7.68413096	      7.73243126	     28.47258617	      0.49694038	     55.48254966	      2.57725936	      0.00000000	     11.75386788	      8.87477056	     15.42314384	      7.12548561	      0.12436318	     43.54924405	    -14.95175561	      0.00000000	      0.87852361	     -1.12611738	      1.20247966	      1.63150620	     -1.49773612	      1.27763463	      1.44332645	     -2.73804181	      1.27763463	      1.00406464	     -2.73804181	      1.05216970	      0.81579703	     -2.29637857	      0.97701472	      0.50198839	     -1.74435583	      0.90185974	      6.27520632	    -12.73886506	      6.68783110	      0.00000000	      0.00000000	     28.22011978	    -11.64705029	    -43.75548437	     19.82735152	      4.10792519	     72.91355647	     24.98732715	      2.35357271	     -9.27253535	     15.16496896	     28.54527362	      1.88202192	     91.55792586	     23.87888486	     49.44912874	     -2.23668269	      2.69418111
      0.05000000	     -8.34705547	     -7.83089209	     87.45063293	      0.20897764	      0.83722780	      0.52828483	     20.32288218	     -7.90981615	      7.43729895	     29.04597146	      0.50694784	     55.62193812	      2.02932205	      0.00000000	     12.12347234	      9.25448167	     15.15616324	      8.12595157	      0.14182461	     44.04488688	    -14.38985853	      0.00000000	      0.82187002	     -1.12868511	      1.08371723	      1.52629481	     -1.50115120	      1.15144955	      1.35025025	     -2.74428498	      1.15144955	      0.93931524	     -2.74428498	      0.94825257	      0.76318850	     -2.30161468	      0.88052025	      0.46961653	     -1.74833324	      0.81278792	      5.87053535	    -12.76791170	      6.02731010	      0.00000000	      0.00000000	     28.20060278	    -11.40953320	    -43.46597521	     21.33046005	      3.33917645	     82.51205793	     25.20254552	      3.54054894	     -5.82342084	     12.77493612	     28.18494996	      1.63506117	     92.18100995	     24.64447111	     53.27752763	     -2.42068518	      3.20610323
